<svg viewBox="0 0 24 24" width="24" height="24" xml:space="preserve" xmlns="http://www.w3.org/2000/svg" fill="#000">
 <style>
  @media (prefers-color-scheme: dark) {
    .background { fill: #f3d117}
  }
  </style>
<g>
  <path class="background"
  d="M20,14c0,4.41-3.59,8-8,8s-8-3.59-8-8c0-4.41,3.59-8,8-8S20,9.59,20,14z" fill="#000"></path>
</g>
<g>
  <path class="background"
  d="M15,13c-0.5527,0-1-0.4473-1-1V4h-4v8c0,0.5527-0.4478,1-1,1s-1-0.4473-1-1V4c0-1.1025,0.897-2,2-2h4    c1.1025,0,2,0.8975,2,2v8C16,12.5527,15.5527,13,15,13z" fill="#000"></path>
</g>
</svg>

